<?xml version="1.0" encoding="UTF-8"?>
<svg width="1020px" height="289px" viewBox="0 0 1020 289" version="1.1" xmlns="http://www.w3.org/2000/svg" xmlns:xlink="http://www.w3.org/1999/xlink">
    <title>Artboard</title>
    <defs>
        <linearGradient x1="-1.33200089%" y1="49.944753%" x2="100%" y2="50.0809816%" id="linearGradient-1">
            <stop stop-color="#E9175F" offset="0%"></stop>
            <stop stop-color="#056770" offset="13.6821861%"></stop>
            <stop stop-color="#94396A" offset="34.5835361%"></stop>
            <stop stop-color="#E9175F" offset="44.5404357%"></stop>
            <stop stop-color="#036870" offset="67.4884252%"></stop>
            <stop stop-color="#E9175F" offset="100%"></stop>
            <stop stop-color="#7D426D" offset="100%"></stop>
        </linearGradient>
    </defs>
    <g id="Artboard" stroke="none" stroke-width="1" fill="none" fill-rule="evenodd">
        <path d="M235.030273,100.751953 L253.194336,147.1875 L255.391601,155.244141 L258.394531,147.333984 L276.485351,100.751953 L298.970703,100.751953 L258.760742,191.865234 C257.442383,194.868164 257.442383,194.868164 255.35498,198.383789 C253.267578,201.899414 253.267578,201.899414 250.118164,204.902344 C246.96875,207.905273 246.96875,207.905273 242.464355,209.956055 C237.959961,212.006836 237.959961,212.006836 231.807617,212.006836 C228.877929,212.006836 228.877929,212.006836 226.717285,211.640625 C224.55664,211.274414 224.55664,211.274414 221.919922,210.541992 L221.919922,210.541992 L224.410156,195.014648 C225.655273,195.014648 225.655273,195.014648 227.596191,195.124512 C229.537109,195.234375 229.537109,195.234375 230.708984,195.234375 C233.125976,195.234375 233.125976,195.234375 234.993652,193.73291 C236.861328,192.231445 236.861328,192.231445 238.179687,190.473633 C239.498047,188.71582 239.498047,188.71582 240.120605,187.836914 C240.743164,186.958008 240.743164,186.958008 241.62207,185.34668 L241.62207,185.34668 L246.30957,176.630859 L212.764648,100.751953 L235.030273,100.751953 Z M158.838867,99.2871094 C167.774414,99.2871094 167.774414,99.2871094 174.732422,102.363281 C181.690429,105.439453 181.690429,105.439453 186.524414,110.859375 C191.285156,116.279297 191.285156,116.279297 193.77539,123.640137 C196.265625,131.000977 196.265625,131.000977 196.265625,139.643555 L196.265625,139.643555 L196.265625,141.181641 C196.265625,149.897461 196.265625,149.897461 193.77539,157.258301 C191.285156,164.619141 191.285156,164.619141 186.524414,170.039062 C181.763672,175.458984 181.763672,175.458984 174.805664,178.498535 C167.847656,181.538086 167.847656,181.538086 158.985351,181.538086 C150.049804,181.538086 150.049804,181.538086 143.055175,178.498535 C136.060547,175.458984 136.060547,175.458984 131.299804,170.039062 C126.46582,164.619141 126.46582,164.619141 123.975586,157.258301 C121.485351,149.897461 121.485351,149.897461 121.485351,141.181641 L121.485351,141.181641 L121.485351,139.643555 C121.485351,131.000977 121.485351,131.000977 123.975586,123.640137 C126.46582,116.279297 126.46582,116.279297 131.299804,110.859375 C136.060547,105.439453 136.060547,105.439453 142.981933,102.363281 C149.90332,99.2871094 149.90332,99.2871094 158.838867,99.2871094 Z M443.882812,99.2871094 C452.818359,99.2871094 452.818359,99.2871094 459.776367,102.363281 C466.734375,105.439453 466.734375,105.439453 471.568359,110.859375 C476.329101,116.279297 476.329101,116.279297 478.819336,123.640137 C481.30957,131.000977 481.30957,131.000977 481.30957,139.643555 L481.30957,139.643555 L481.30957,141.181641 C481.30957,149.897461 481.30957,149.897461 478.819336,157.258301 C476.329101,164.619141 476.329101,164.619141 471.568359,170.039062 C466.807617,175.458984 466.807617,175.458984 459.849609,178.498535 C452.891601,181.538086 452.891601,181.538086 444.029297,181.538086 C435.09375,181.538086 435.09375,181.538086 428.099121,178.498535 C421.104492,175.458984 421.104492,175.458984 416.34375,170.039062 C411.509766,164.619141 411.509766,164.619141 409.019531,157.258301 C406.529297,149.897461 406.529297,149.897461 406.529297,141.181641 L406.529297,141.181641 L406.529297,139.643555 C406.529297,131.000977 406.529297,131.000977 409.019531,123.640137 C411.509766,116.279297 411.509766,116.279297 416.34375,110.859375 C421.104492,105.439453 421.104492,105.439453 428.025879,102.363281 C434.947266,99.2871094 434.947266,99.2871094 443.882812,99.2871094 Z M824.527344,99.2871094 C832.803711,99.2871094 832.803711,99.2871094 839.395508,101.228027 C845.987305,103.168945 845.987305,103.168945 850.601563,106.538086 C855.142578,109.980469 855.142578,109.980469 857.559571,114.667969 C859.976563,119.355469 859.976563,119.355469 859.976563,124.848633 L859.976563,124.848633 L839.615235,124.848633 C839.615235,122.871094 839.615235,122.871094 838.956055,121.149902 C838.296875,119.428711 838.296875,119.428711 836.978516,118.037109 C835.147461,116.206055 835.147461,116.206055 832.034668,115.107422 C828.921875,114.008789 828.921875,114.008789 824.527344,114.008789 C820.791992,114.008789 820.791992,114.008789 818.008789,114.741211 C815.225586,115.473633 815.225586,115.473633 813.467774,116.791992 C811.856446,117.963867 811.856446,117.963867 811.01416,119.538574 C810.171875,121.113281 810.171875,121.113281 810.171875,122.871094 C810.171875,124.628906 810.171875,124.628906 810.904297,126.130371 C811.636719,127.631836 811.636719,127.631836 813.541016,128.803711 C815.372071,130.048828 815.372071,130.048828 818.594727,131.037598 C821.817383,132.026367 821.817383,132.026367 826.797852,132.758789 C833.975586,133.930664 833.975586,133.930664 840.12793,135.761719 C846.280274,137.592773 846.280274,137.592773 850.748047,140.449219 C855.215821,143.378906 855.215821,143.378906 857.742676,147.51709 C860.269531,151.655273 860.269531,151.655273 860.269531,157.368164 C860.269531,162.641602 860.269531,162.641602 857.742676,167.072754 C855.215821,171.503906 855.215821,171.503906 850.601563,174.726562 C845.914063,177.949219 845.914063,177.949219 839.322266,179.743652 C832.730469,181.538086 832.730469,181.538086 824.600586,181.538086 C815.665039,181.538086 815.665039,181.538086 808.816895,179.194336 C801.96875,176.850586 801.96875,176.850586 797.354492,173.041992 C792.740235,169.306641 792.740235,169.306641 790.359864,164.509277 C787.979492,159.711914 787.979492,159.711914 787.979492,154.87793 L787.979492,154.87793 L807.388672,154.87793 C807.608399,158.100586 807.608399,158.100586 809.146485,160.407715 C810.684571,162.714844 810.684571,162.714844 813.101563,164.106445 C815.518555,165.571289 815.518555,165.571289 818.631348,166.230469 C821.744141,166.889648 821.744141,166.889648 825.040039,166.889648 C828.995117,166.889648 828.995117,166.889648 831.961426,166.193848 C834.927735,165.498047 834.927735,165.498047 836.832031,164.326172 C838.663086,163.154297 838.663086,163.154297 839.578614,161.616211 C840.494141,160.078125 840.494141,160.078125 840.494141,158.24707 C840.494141,156.416016 840.494141,156.416016 839.651856,155.024414 C838.809571,153.632812 838.809571,153.632812 836.685547,152.387695 C834.488281,151.21582 834.488281,151.21582 830.899414,150.19043 C827.310547,149.165039 827.310547,149.165039 821.817383,148.139648 C814.859375,146.748047 814.859375,146.748047 809.109864,144.660645 C803.360352,142.573242 803.360352,142.573242 799.258789,139.570312 C795.157227,136.640625 795.157227,136.640625 792.850098,132.758789 C790.542969,128.876953 790.542969,128.876953 790.542969,123.823242 C790.542969,118.916016 790.542969,118.916016 792.886719,114.448242 C795.230469,109.980469 795.230469,109.980469 799.625,106.611328 C804.019531,103.242188 804.019531,103.242188 810.31836,101.264648 C816.617188,99.2871094 816.617188,99.2871094 824.527344,99.2871094 Z M99.4199215,73.359375 L99.4931637,147.260742 C99.4199215,154.87793 99.4199215,154.87793 96.6000973,161.140137 C93.7802731,167.402344 93.7802731,167.402344 88.8730465,171.943359 C83.9658199,176.484375 83.9658199,176.484375 77.337402,178.974609 C70.708984,181.464844 70.708984,181.464844 63.0917965,181.464844 C55.0351559,181.464844 55.0351559,181.464844 48.443359,179.414062 C41.8515621,177.363281 41.8515621,177.363281 37.1640621,173.261719 C32.4033199,169.233398 32.4033199,169.233398 29.7666012,163.081055 C27.1298824,156.928711 27.1298824,156.928711 27.0566403,148.652344 L27.0566403,148.652344 L47.7109371,148.652344 C47.7109371,152.460938 47.7109371,152.460938 48.443359,155.317383 C49.1757809,158.173828 49.1757809,158.173828 50.6406246,160.151367 C52.5449215,162.568359 52.5449215,162.568359 55.6210934,163.740234 C58.6972653,164.912109 58.6972653,164.912109 63.0917965,164.912109 C66.6074215,164.912109 66.6074215,164.912109 69.537109,163.557129 C72.4667965,162.202148 72.4667965,162.202148 74.5175778,159.858398 C76.568359,157.514648 76.568359,157.514648 77.7036129,154.255371 C78.8388668,150.996094 78.8388668,150.996094 78.8388668,147.260742 L78.8388668,147.260742 L78.8388668,73.359375 L99.4199215,73.359375 Z M713.91211,73.359375 L713.985352,144.038086 C714.058594,149.384766 714.058594,149.384766 715.047363,153.413086 C716.036133,157.441406 716.036133,157.441406 718.013672,160.078125 C719.844727,162.495117 719.844727,162.495117 722.481445,163.703613 C725.118164,164.912109 725.118164,164.912109 728.560547,164.912109 C732.295899,164.912109 732.295899,164.912109 735.188965,163.630371 C738.082031,162.348633 738.082031,162.348633 739.986328,159.785156 C742.03711,157.148438 742.03711,157.148438 743.0625,153.193359 C744.087891,149.238281 744.087891,149.238281 744.161133,144.038086 L744.161133,144.038086 L744.234375,73.359375 L764.668945,73.359375 L764.742188,144.038086 C764.742188,152.973633 764.742188,152.973633 762.288574,159.931641 C759.834961,166.889648 759.834961,166.889648 755.220703,171.650391 C750.533203,176.484375 750.533203,176.484375 743.831543,178.974609 C737.129883,181.464844 737.129883,181.464844 728.560547,181.464844 C720.503906,181.464844 720.503906,181.464844 714.021973,178.974609 C707.540039,176.484375 707.540039,176.484375 702.925781,171.723633 C698.311524,166.962891 698.311524,166.962891 695.784668,159.968262 C693.257813,152.973633 693.257813,152.973633 693.257813,144.038086 L693.257813,144.038086 L693.331055,73.359375 L713.91211,73.359375 Z M920.567383,99.2871094 C929.136719,99.2871094 929.136719,99.2871094 935.838379,102.106934 C942.540039,104.926758 942.540039,104.926758 947.227539,110.053711 C951.841797,115.180664 951.841797,115.180664 954.258789,122.39502 C956.675782,129.609375 956.675782,129.609375 956.675782,138.325195 L956.675782,138.325195 L956.675782,146.967773 L902.916016,146.967773 L902.916016,147.1875 C903.941407,151.948242 903.941407,151.948242 905.552735,154.841309 C907.164063,157.734375 907.164063,157.734375 909.874024,160.078125 C912.657227,162.495117 912.657227,162.495117 916.246094,163.813477 C919.834961,165.131836 919.834961,165.131836 924.083008,165.131836 C930.088867,165.131836 930.088867,165.131836 935.728516,162.861328 C941.368164,160.59082 941.368164,160.59082 944.883789,156.049805 L944.883789,156.049805 L955.064453,167.036133 C951.182617,172.529297 951.182617,172.529297 942.759766,176.99707 C934.336914,181.464844 934.336914,181.464844 922.837891,181.464844 C913.682617,181.464844 913.682617,181.464844 906.211914,178.461914 C898.741211,175.458984 898.741211,175.458984 893.394532,170.258789 C888.047852,165.131836 888.047852,165.131836 885.154785,158.137207 C882.261719,151.142578 882.261719,151.142578 882.261719,143.15918 L882.261719,143.15918 L882.261719,140.229492 C882.261719,131.147461 882.261719,131.147461 885.118164,123.640137 C887.97461,116.132812 887.97461,116.132812 893.101563,110.712891 C898.228516,105.292969 898.228516,105.292969 905.259766,102.290039 C912.291016,99.2871094 912.291016,99.2871094 920.567383,99.2871094 Z M559.551758,64.2041016 C562.115234,64.2041016 562.115234,64.2041016 564.495605,64.387207 C566.875977,64.5703125 566.875977,64.5703125 569.146484,64.8632812 C571.416992,65.15625 571.416992,65.15625 573.724121,65.5224609 C576.03125,65.8886719 576.03125,65.8886719 578.521484,66.328125 L578.521484,66.328125 L577.203125,82.2949219 C574.419922,81.7089844 574.419922,81.7089844 570.904297,81.2695312 C567.388672,80.8300781 567.388672,80.8300781 562.62793,80.8300781 C557.500977,80.8300781 557.500977,80.8300781 553.912109,82.0019531 C550.323242,83.1738281 550.323242,83.1738281 548.199219,85.4443359 C546.294922,87.3486328 546.294922,87.3486328 545.379395,90.1318359 C544.463867,92.9150391 544.463867,92.9150391 544.463867,96.4306641 L544.463867,96.4306641 L544.463867,100.751953 L573.02832,100.751953 L573.02832,115.766602 L544.463867,115.766602 L544.463867,180 L524.029297,180 L524.029297,115.766602 L503.228516,115.766602 L503.228516,100.751953 L524.029297,100.751953 L524.029297,96.4306641 C524.029297,88.59375 524.029297,88.59375 526.519531,82.5878906 C529.009766,76.5820312 529.009766,76.5820312 533.624023,72.4804688 C538.238281,68.3789062 538.238281,68.3789062 544.830078,66.2915039 C551.421875,64.2041016 551.421875,64.2041016 559.551758,64.2041016 Z M158.838867,115.766602 C154.297851,115.766602 154.297851,115.766602 151.075195,117.670898 C147.852539,119.575195 147.852539,119.575195 145.801758,122.871094 C143.750976,126.166992 143.750976,126.166992 142.798828,130.488281 C141.846679,134.80957 141.846679,134.80957 141.846679,139.643555 L141.846679,139.643555 L141.846679,141.181641 C141.846679,146.162109 141.846679,146.162109 142.798828,150.52002 C143.750976,154.87793 143.750976,154.87793 145.801758,158.100586 C147.852539,161.396484 147.852539,161.396484 151.111816,163.300781 C154.371093,165.205078 154.371093,165.205078 158.985351,165.205078 C163.453125,165.205078 163.453125,165.205078 166.675781,163.300781 C169.898437,161.396484 169.898437,161.396484 171.949218,158.100586 C173.926758,154.87793 173.926758,154.87793 174.878906,150.52002 C175.831054,146.162109 175.831054,146.162109 175.831054,141.181641 L175.831054,141.181641 L175.831054,139.643555 C175.831054,134.80957 175.831054,134.80957 174.878906,130.488281 C173.926758,126.166992 173.926758,126.166992 171.949218,122.871094 C169.898437,119.575195 169.898437,119.575195 166.675781,117.670898 C163.453125,115.766602 163.453125,115.766602 158.838867,115.766602 Z M443.882812,115.766602 C439.341797,115.766602 439.341797,115.766602 436.119141,117.670898 C432.896484,119.575195 432.896484,119.575195 430.845703,122.871094 C428.794922,126.166992 428.794922,126.166992 427.842773,130.488281 C426.890625,134.80957 426.890625,134.80957 426.890625,139.643555 L426.890625,139.643555 L426.890625,141.181641 C426.890625,146.162109 426.890625,146.162109 427.842773,150.52002 C428.794922,154.87793 428.794922,154.87793 430.845703,158.100586 C432.896484,161.396484 432.896484,161.396484 436.155762,163.300781 C439.415039,165.205078 439.415039,165.205078 444.029297,165.205078 C448.49707,165.205078 448.49707,165.205078 451.719726,163.300781 C454.942383,161.396484 454.942383,161.396484 456.993164,158.100586 C458.970703,154.87793 458.970703,154.87793 459.922851,150.52002 C460.875,146.162109 460.875,146.162109 460.875,141.181641 L460.875,141.181641 L460.875,139.643555 C460.875,134.80957 460.875,134.80957 459.922851,130.488281 C458.970703,126.166992 458.970703,126.166992 456.993164,122.871094 C454.942383,119.575195 454.942383,119.575195 451.719726,117.670898 C448.49707,115.766602 448.49707,115.766602 443.882812,115.766602 Z M920.420899,115.766602 C916.978516,115.766602 916.978516,115.766602 914.122071,116.975098 C911.265625,118.183594 911.265625,118.183594 909.141602,120.454102 C906.944336,122.724609 906.944336,122.724609 905.479492,125.874023 C904.014649,129.023438 904.014649,129.023438 903.282227,132.905273 L903.282227,132.905273 L936.680664,132.905273 L936.680664,131.293945 C936.680664,128.071289 936.680664,128.071289 935.508789,125.214844 C934.336914,122.358398 934.336914,122.358398 932.286133,120.234375 C930.235352,118.183594 930.235352,118.183594 927.269043,116.975098 C924.302735,115.766602 924.302735,115.766602 920.420899,115.766602 Z" id="Combined-Shape" fill="url(#linearGradient-1)"></path>
    </g>
</svg>