<?xml version="1.0" encoding="UTF-8"?>
<svg width="210px" height="210px" viewBox="0 0 210 210" version="1.1" xmlns="http://www.w3.org/2000/svg" xmlns:xlink="http://www.w3.org/1999/xlink">
    <title>joy copy 5</title>
    <g id="Page-1" stroke="none" stroke-width="1" fill="none" fill-rule="evenodd">
        <g id="joy-copy-5" transform="translate(5.000000, 5.000000)" fill-rule="nonzero">
            <g id="cog-outline-copy" fill="#F9F9F9" stroke="#878D96" stroke-width="10">
                <path d="M74.3045043,195.8 L70.5015709,169.3 C64.0263057,166.8 58.4760785,163.4 53.1314157,159.4 L27.5387016,169.5 C25.277498,170.3 22.5023845,169.5 21.2690006,167.3 L0.712603977,132.7 C-0.623561809,130.5 -0.00686990611,127.8 1.94598778,126.3 L23.6329863,109.7 L22.9135124,100 L23.6329863,90 L1.94598778,73.7000001 C-0.00686990611,72.2000001 -0.623561809,69.5 0.712603977,67.3000001 L21.2690006,32.7 C22.5023845,30.5 25.277498,29.6 27.5387016,30.5 L53.1314157,40.5 C58.4760785,36.6 64.0263057,33.2 70.5015709,30.7 L74.3045043,4.2 C74.7156319,1.8 76.8740538,0 79.4436033,0 L120.556397,0 C123.125946,0 125.284368,1.8 125.695496,4.2 L129.498429,30.7 C135.973694,33.2 141.523921,36.6 146.868584,40.5 L172.461299,30.5 C174.722501,29.6 177.497615,30.5 178.731,32.7 L199.287396,67.3000001 C200.623561,69.5 200.00687,72.2000001 198.054013,73.7000001 L176.367014,90 L177.086488,100 L176.367014,110 L198.054013,126.3 C200.00687,127.8 200.623561,130.5 199.287396,132.7 L178.731,167.3 C177.497615,169.5 174.722501,170.4 172.461299,169.5 C171.098111,168.967353 170.07572,168.567868 169.394126,168.301545 C164.38845,166.345646 156.879936,163.411798 146.868584,159.5 C141.523921,163.4 135.973694,166.8 129.498429,169.3 L125.695496,195.8 C125.284368,198.2 123.125946,200 120.556397,200 L79.4436033,200 C76.8740538,200 74.7156319,198.2 74.3045043,195.8 Z" id="Shape"></path>
            </g>
            <g id="Group" transform="translate(51.771083, 73.782128)">
                <path d="M91.8583022,29.7892968 C90.8913303,36.1557458 87.7954537,49.3254324 78.1550308,58.9658553 C71.6493532,65.4715334 62.1060847,70.2654872 48.2289132,70.2654872 C13.7477314,70.2654872 6.19225827,40.46644 4.59178951,29.7892968 L91.8583022,29.7892968 Z" id="Oval-Copy-2" fill="#E9175F"></path>
                <polygon id="Rectangle-Copy-2" fill="#878D96" transform="translate(14.895578, 7.170249) scale(-1, 1) rotate(-10.000000) translate(-14.895578, -7.170249) " points="0.609863982 2.40834423 29.1812926 2.40834423 29.1812926 11.9321537 0.609863982 11.9321537"></polygon>
                <polygon id="Rectangle-Copy-3" fill="#878D96" transform="translate(81.562238, 7.170250) scale(-1, 1) rotate(10.000000) translate(-81.562238, -7.170250) " points="67.2765233 2.40834514 95.8479519 2.40834514 95.8479519 11.9321546 67.2765233 11.9321546"></polygon>
            </g>
        </g>
    </g>
</svg>